<svg xmlns="http://www.w3.org/2000/svg" width="32" height="32" viewBox="0 0 32 32" fill="none">
  <g id="Group 1000003174">
    <rect id="Rectangle 915" width="32" height="32" rx="8" fill="white" />
    <path id="Union" fill-rule="evenodd" clip-rule="evenodd"
      d="M21.832 6.66406C21.832 6.38792 21.6082 6.16406 21.332 6.16406C21.0559 6.16406 20.832 6.38792 20.832 6.66406V10.1641H17.332C17.0559 10.1641 16.832 10.3879 16.832 10.6641C16.832 10.9402 17.0559 11.1641 17.332 11.1641H20.832V14.6641C20.832 14.9402 21.0559 15.1641 21.332 15.1641C21.6082 15.1641 21.832 14.9402 21.832 14.6641V11.1641H25.332C25.6082 11.1641 25.832 10.9402 25.832 10.6641C25.832 10.3879 25.6082 10.1641 25.332 10.1641H21.832V6.66406ZM8.66797 7.66406H12.668C13.2203 7.66406 13.668 8.11178 13.668 8.66406V12.6641C13.668 13.2163 13.2203 13.6641 12.668 13.6641H8.66797C8.11568 13.6641 7.66797 13.2163 7.66797 12.6641V8.66406C7.66797 8.11178 8.11568 7.66406 8.66797 7.66406ZM6.66797 8.66406C6.66797 7.55949 7.5634 6.66406 8.66797 6.66406H12.668C13.7725 6.66406 14.668 7.55949 14.668 8.66406V12.6641C14.668 13.7686 13.7725 14.6641 12.668 14.6641H8.66797C7.5634 14.6641 6.66797 13.7686 6.66797 12.6641V8.66406ZM8.66797 18.3359H12.668C13.2203 18.3359 13.668 18.7837 13.668 19.3359V23.3359C13.668 23.8882 13.2203 24.3359 12.668 24.3359H8.66797C8.11568 24.3359 7.66797 23.8882 7.66797 23.3359V19.3359C7.66797 18.7837 8.11568 18.3359 8.66797 18.3359ZM6.66797 19.3359C6.66797 18.2314 7.5634 17.3359 8.66797 17.3359H12.668C13.7725 17.3359 14.668 18.2314 14.668 19.3359V23.3359C14.668 24.4405 13.7725 25.3359 12.668 25.3359H8.66797C7.5634 25.3359 6.66797 24.4405 6.66797 23.3359V19.3359ZM24.332 19.3359C24.332 18.7837 23.8843 18.3359 23.332 18.3359H19.332C18.7797 18.3359 18.332 18.7837 18.332 19.3359V23.3359C18.332 23.8882 18.7797 24.3359 19.332 24.3359H23.332C23.8843 24.3359 24.332 23.8882 24.332 23.3359V19.3359ZM19.332 17.3359C18.2275 17.3359 17.332 18.2314 17.332 19.3359V23.3359C17.332 24.4405 18.2275 25.3359 19.332 25.3359H23.332C24.4366 25.3359 25.332 24.4405 25.332 23.3359V19.3359C25.332 18.2314 24.4366 17.3359 23.332 17.3359H19.332Z"
      fill="#2F65AD" />
  </g>
</svg>