<svg xmlns="http://www.w3.org/2000/svg" width="32" height="32" viewBox="0 0 32 32" fill="none">
  <rect width="32" height="32" rx="8" fill="#02101C" />
  <path fill-rule="evenodd" clip-rule="evenodd"
    d="M20.8053 14.1712C21.6373 15.2957 22.1387 16.7243 22.1387 18.2734C22.1387 19.8225 21.6267 21.2913 20.768 22.4273L20.6933 22.5248L20.672 22.3986C20.656 22.2953 20.6347 22.1863 20.6133 22.0773C20.1867 20.052 18.7893 18.3136 16.4853 16.9022C14.9333 15.9555 14.0427 14.8138 13.808 13.5171C13.6587 12.6795 13.7707 11.8361 13.984 11.1132C14.2027 10.3903 14.5227 9.78785 14.7947 9.42639L15.6907 8.25023C15.8453 8.04368 16.144 8.04368 16.2987 8.25023L20.8053 14.1712ZM22.2187 12.995L16.224 5.11188C16.112 4.96271 15.8933 4.96271 15.7813 5.11188L9.78133 12.995L9.76 13.0237C8.66133 14.4982 8 16.3686 8 18.4054C8 23.1502 11.584 27 16 27C20.416 27 24 23.1502 24 18.4054C24 16.3686 23.3387 14.4982 22.2347 13.0237L22.2187 12.995ZM11.216 14.1483L11.7493 13.4426L11.7653 13.5745C11.776 13.6778 11.792 13.7811 11.8133 13.8843C12.16 15.8408 13.4027 17.4759 15.472 18.7382C17.2747 19.8397 18.32 21.1077 18.624 22.5019C18.752 23.0814 18.7733 23.6551 18.72 24.1543L18.7147 24.1829L18.688 24.1944C17.8773 24.619 16.96 24.86 15.9947 24.86C12.608 24.86 9.86133 21.9109 9.86133 18.2734C9.86133 16.7129 10.368 15.2728 11.216 14.1483Z"
    fill="#4DA2FF" />
</svg>