<svg xmlns="http://www.w3.org/2000/svg" width="32" height="32" viewBox="0 0 32 32" fill="none">
  <rect width="32" height="32" rx="8" fill="#3FA9F5" />
  <path fill-rule="evenodd" clip-rule="evenodd"
    d="M20.9955 14.2392C21.8666 15.3348 22.3795 16.7116 22.3795 18.2145C22.3795 19.7367 21.8472 21.1426 20.9568 22.2383L20.8794 22.3352L20.86 22.2189C20.8406 22.1122 20.8213 22.0153 20.8019 21.9086C20.3567 19.9403 18.9049 18.263 16.5046 16.8958C14.8883 15.965 13.9591 14.8597 13.7171 13.6089C13.5623 12.7945 13.6784 11.98 13.901 11.2819C14.1236 10.5838 14.4624 9.99238 14.7431 9.64333L15.6722 8.49921C15.8368 8.2956 16.1368 8.2956 16.3013 8.49921L20.9955 14.2392ZM22.4667 13.0951L16.2239 5.44502C16.1078 5.29958 15.8852 5.29958 15.7593 5.44502L9.52627 13.0951L9.50692 13.1241C8.35515 14.5494 7.66797 16.3626 7.66797 18.3405C7.66797 22.9364 11.3943 26.6693 16.0013 26.6693C20.5987 26.6693 24.3346 22.9364 24.3346 18.3405C24.3346 16.3626 23.6474 14.5494 22.4957 13.1241L22.4667 13.0951ZM11.0168 14.2101L11.5782 13.5217L11.5975 13.6477C11.6072 13.7447 11.6265 13.8513 11.6459 13.9483C12.004 15.8487 13.301 17.4291 15.4593 18.6605C17.337 19.727 18.4306 20.9584 18.7404 22.3061C18.8759 22.8685 18.8952 23.4212 18.8372 23.9059V23.935L18.7984 23.9544C17.9564 24.3713 16.9982 24.6041 15.9916 24.6041C12.4686 24.6041 9.6037 21.7438 9.6037 18.2145C9.61338 16.7019 10.136 15.3057 11.0168 14.2101Z"
    fill="white" />
</svg>